{"title":"Better Late Than Never - S01E02","uid":16042733,"size":341921111,"categoryP":"video","categoryS":"tv_shows","magnet":"?xt=urn:btih:85386f1e22cbee8f89015ae2bbe29cd117a943f3&amp;dn=Better+Late+Than+Never+-+S01E02&amp;tr=udp%3A%2F%2Ftracker.leechers-paradise.org%3A6969&amp;tr=udp%3A%2F%2Fzer0day.ch%3A1337&amp;tr=udp%3A%2F%2Fopen.demonii.com%3A1337&amp;tr=udp%3A%2F%2Ftracker.coppersurfer.tk%3A6969&amp;tr=udp%3A%2F%2Fexodus.desync.com%3A6969","seeders":9,"leechers":0,"uploader":"Bullrout","files":1,"time":1476530007,"description":"Better Late Than Never - S01E02 - Kyoto &amp; Hong Kong-Less Talky, More Sake\r\n\r\nHenry Winkler, William Shatner, Terry Bradshaw and George Foreman visit a geisha house and a samurai warrior school, in Hong Kong the gang stays at one of the top hotels in the world, rents a yacht, and visits a Chinese medicine shop.\r\n\r\nComplete name : Better Late Than Never - S01E02 - Kyoto &amp; Hong Kong-Less Talky, More Sake.mp4\r\nFormat : MPEG-4\r\nFormat profile : Base Media / Version 2\r\nCodec ID : mp42 (mp42/isom/avc1)\r\nFile size : 326 MiB\r\nDuration : 41 min 19 s\r\nOverall bit rate mode : Variable\r\nOverall bit rate : 1 103 kb/s\r\n\r\nVideo\r\nID : 2\r\nFormat : AVC\r\nFormat/Info : Advanced Video Codec\r\nFormat profile :   \r\nFormat settings, CABAC : Yes\r\nFormat settings, ReFrames : 3 frames\r\nCodec ID : avc1\r\nCodec ID/Info : Advanced Video Coding\r\nDuration : 41 min 19 s\r\nBit rate mode : Variable\r\nBit rate : 972 kb/s\r\nMaximum bit rate : 1 000 kb/s\r\nWidth : 720 pixels\r\nHeight : 404 pixels\r\nDisplay aspect ratio : 16:9\r\nOriginal display aspect ratio : 16:9\r\nFrame rate mode : Constant\r\nFrame rate : 25.000 FPS\r\nStandard : PAL\r\nColor space : YUV\r\nChroma subsampling : 4:2:0\r\nBit depth : 8 bits\r\nScan type : Progressive\r\nBits/(Pixel*Frame) : 0.134\r\nStream size : 287 MiB (88%)\r\nWriting library : x264 core 112\r\nColor range : Limited\r\nColor primaries : BT.601 PAL\r\nTransfer characteristics : BT.470 System B, BT.470 System G\r\nMatrix coefficients : BT.601\r\n\r\nAudio\r\nID : 1\r\nFormat : AAC\r\nFormat/Info : Advanced Audio Codec\r\nFormat profile : LC\r\nCodec ID : 40\r\nDuration : 41 min 19 s\r\nBit rate mode : Variable\r\nBit rate : 128 kb/s\r\nMaximum bit rate : 576 kb/s\r\nChannel(s) : 2 channels\r\nChannel positions : Front: L R\r\nSampling rate : 48.0 kHz\r\nFrame rate : 46.875 FPS (1024 spf)\r\nCompression mode : Lossy\r\nStream size : 37.8 MiB (12%)","torrent":{"xt":"urn:btih:85386f1e22cbee8f89015ae2bbe29cd117a943f3","amp;dn":"Better+Late+Than+Never+-+S01E02","amp;tr":["udp%3A%2F%2Ftracker.leechers-paradise.org%3A6969","udp%3A%2F%2Fzer0day.ch%3A1337","udp%3A%2F%2Fopen.demonii.com%3A1337","udp%3A%2F%2Ftracker.coppersurfer.tk%3A6969","udp%3A%2F%2Fexodus.desync.com%3A6969"],"infoHash":"85386f1e22cbee8f89015ae2bbe29cd117a943f3","infoHashBuffer":{"type":"Buffer","data":[133,56,111,30,34,203,238,143,137,1,90,226,187,226,156,209,23,169,67,243]},"announce":[],"urlList":[]}}